<?xml version="1.0" encoding="utf-8"?>
<!-- Generator: Adobe Illustrator 25.4.1, SVG Export Plug-In . SVG Version: 6.00 Build 0)  -->
<svg version="1.1" id="Layer_3" xmlns="http://www.w3.org/2000/svg" xmlns:xlink="http://www.w3.org/1999/xlink" x="0px" y="0px"
	 viewBox="0 0 96 96" style="enable-background:new 0 0 96 96;" xml:space="preserve">
<style type="text/css">
	.st0{fill:#0C2035;}
</style>
<path class="st0" d="M0,0v96h96V0H0z M61.3,28.9v0.3c-0.1,0-0.2,0-0.3,0c-1.3,0-2.5,0-3.8,0c-1,0-1.9,0.2-2.8,0.7
	c-1.4,0.8-2,2.1-2,3.7c-0.1,2,0,4.1,0,6.1c0,0,0,0.1,0,0.2h8.6c-0.5,3-0.9,6-1.4,9h-7.2v21.7l-9.7,0V48.8h-7.9v-9h7.9v-0.3
	c0-2.3,0-4.5,0-6.8c0-1.1,0.1-2.3,0.4-3.4c1-4.2,3.6-7,7.8-8c1.6-0.4,3.3-0.4,4.9-0.4c1.8,0.1,3.5,0.3,5.2,0.5
	c0.2,0,0.3,0.1,0.3,0.3C61.3,24.2,61.3,26.6,61.3,28.9z"/>
</svg>
