<?xml version="1.0" encoding="utf-8"?>
<!-- Generator: Adobe Illustrator 25.4.1, SVG Export Plug-In . SVG Version: 6.00 Build 0)  -->
<svg version="1.1" id="Layer_2" xmlns="http://www.w3.org/2000/svg" xmlns:xlink="http://www.w3.org/1999/xlink" x="0px" y="0px"
	 viewBox="0 0 96 96" style="enable-background:new 0 0 96 96;" xml:space="preserve">
<style type="text/css">
	.st0{fill:#0C2035;}
</style>
<g>
	<path class="st0" d="M49.9,37.8c-4.5,0-8.2,3.7-8.2,8.2c0,4.5,3.7,8.2,8.2,8.2c4.5,0,8.2-3.7,8.2-8.2
		C58.1,41.5,54.4,37.8,49.9,37.8z"/>
	<path class="st0" d="M69.2,32c-0.7-2.2-2.1-3.8-4.2-4.8c-1.3-0.7-2.8-1-4.2-1.1c-1.5-0.1-3-0.2-4.5-0.2c-5.2,0-10.5-0.1-15.7,0.1
		c-1.4,0.1-2.8,0.2-4.1,0.5c-2.2,0.6-3.9,1.8-5.1,3.7c-0.9,1.5-1.3,3.2-1.4,4.9c-0.1,1.5-0.2,3-0.2,4.6c0,4.8,0,9.6,0,14.4
		c0,1.4,0.1,2.9,0.3,4.3c0.2,1.3,0.7,2.6,1.4,3.8c1.3,2,3.2,3.1,5.5,3.5c1.6,0.3,3.2,0.4,4.8,0.4c2.7,0.1,5.3,0.1,8.8,0.1
		c2.3,0,5.4-0.1,8.5-0.1c1.5,0,2.9-0.2,4.3-0.6c2.1-0.6,3.7-1.8,4.9-3.6c0.9-1.5,1.3-3.2,1.4-4.9c0.1-1.5,0.2-3,0.2-4.6
		c0-5.5,0.1-11.1-0.1-16.6C69.8,34.5,69.6,33.2,69.2,32z M49.9,58.6c-6.9,0-12.6-5.7-12.6-12.6c0-6.9,5.7-12.6,12.6-12.6
		c6.9,0,12.6,5.7,12.6,12.6C62.5,53,56.8,58.6,49.9,58.6z M63,35.9c-1.6,0-2.9-1.3-2.9-2.9c0-1.6,1.3-2.9,2.9-2.9
		c1.6,0,2.9,1.3,2.9,2.9C65.9,34.6,64.6,35.9,63,35.9z"/>
	<path class="st0" d="M0,0v96h96V0H0z M74.3,56.3c-0.1,1.5-0.3,3-0.7,4.4c-0.9,3.2-2.7,5.8-5.6,7.6c-2.2,1.3-4.6,1.9-7.1,2.1
		c-1.6,0.1-3.1,0.2-4.7,0.2c-5.4,0-10.8,0.1-16.2-0.1c-1.5-0.1-2.9-0.2-4.4-0.6c-3.3-0.8-5.9-2.6-7.8-5.5c-1.5-2.2-2.1-4.8-2.2-7.4
		c-0.1-1.4-0.1-2.9-0.2-4.3c0-0.1,0-0.2,0-0.3V39.7c0-0.1,0-0.1,0-0.2c0-1.2,0.1-2.4,0.1-3.5c0.1-1.5,0.3-3.1,0.7-4.6
		c0.9-3.2,2.7-5.8,5.6-7.6c2.2-1.3,4.6-1.9,7.1-2.1c1.4-0.1,2.8-0.1,4.2-0.2c0.1,0,0.2,0,0.4,0h12.7c0.1,0,0.2,0,0.3,0
		c1.4,0.1,2.8,0.1,4.2,0.2c1.5,0.1,2.9,0.3,4.3,0.8c3.1,1,5.6,2.9,7.2,5.7c1.2,2.1,1.8,4.5,1.9,6.9c0.1,1.6,0.2,3.1,0.2,4.7
		C74.4,45.3,74.5,50.8,74.3,56.3z"/>
</g>
</svg>
