<?xml version="1.0" encoding="utf-8"?>
<!-- Generator: Adobe Illustrator 25.4.1, SVG Export Plug-In . SVG Version: 6.00 Build 0)  -->
<svg version="1.1" id="Layer_2_00000075153555875506829070000017159547799564310448_"
	 xmlns="http://www.w3.org/2000/svg" xmlns:xlink="http://www.w3.org/1999/xlink" x="0px" y="0px" viewBox="0 0 96 96"
	 style="enable-background:new 0 0 96 96;" xml:space="preserve">
<style type="text/css">
	.st0{fill:#0C2035;}
</style>
<path class="st0" d="M0,0v96h96V0H0z M71,34.2c-0.6,4.3-1.2,8.6-1.9,12.9c-0.7,4.6-1.5,9.1-2.3,13.7c-0.4,2.3-0.8,4.6-1.3,6.9
	c-0.1,0.7-0.4,1.4-0.8,2.1c-0.9,1.7-2.1,2.3-4,1.9c-1.3-0.3-2.4-0.9-3.5-1.6c-4.9-3.3-9.7-6.6-14.6-9.9c-0.6-0.4-1.2-1-1.7-1.5
	c-0.8-0.9-0.9-1.9-0.1-2.9c0.4-0.6,0.9-1.1,1.4-1.6c3.1-3,6.3-5.9,9.4-8.9c1.9-1.8,3.7-3.6,5.5-5.5c0.2-0.2,0.4-0.5,0.7-0.8
	c0.3-0.3,0.2-0.7,0-1c-0.2-0.3-0.5-0.4-0.8-0.3c-0.3,0.1-0.7,0.2-1,0.4c-4.7,3.1-9.5,6.2-14.2,9.4c-2.4,1.6-4.7,3.2-7,4.7
	c-1.3,0.9-2.7,1.5-4.4,1.7c-1.2,0.1-2.3-0.1-3.5-0.4c-2.7-0.8-5.4-1.6-8.2-2.4c-0.5-0.2-1.1-0.4-1.6-0.7c-1.1-0.7-1.2-1.8-0.2-2.6
	c0.7-0.6,1.6-1.1,2.5-1.5c10-4.4,20.1-8.7,30.1-13c5-2.1,10-4,15-6c1.1-0.4,2.2-0.7,3.4-0.9c0.5-0.1,1.1,0,1.6,0.1
	c1.2,0.2,1.7,0.9,1.8,2.3c0,0.3,0,0.6,0.1,1c0,0,0,0,0,0C71.4,31.1,71.2,32.7,71,34.2z"/>
</svg>
