<?xml version="1.0" encoding="utf-8"?>
<!-- Generator: Adobe Illustrator 25.4.1, SVG Export Plug-In . SVG Version: 6.00 Build 0)  -->
<svg version="1.1" id="Layer_1" xmlns="http://www.w3.org/2000/svg" xmlns:xlink="http://www.w3.org/1999/xlink" x="0px" y="0px"
	 viewBox="0 0 96 96" style="enable-background:new 0 0 96 96;" xml:space="preserve">
<style type="text/css">
	.st0{fill:#0C2035;}
</style>
<path class="st0" d="M0,0v96h96V0H0z M74.5,30.7c0,0.1-0.1,0.1-0.1,0.2c-1.4,2-3.1,3.8-5.1,5.2c-0.1,0.1-0.2,0.2-0.2,0.4
	c0,0.4,0,0.8,0,1.2c0,2.4-0.3,4.8-0.9,7.1c-1.4,5.7-4.1,10.7-8.2,14.9c-3.1,3.2-6.7,5.6-10.9,7.1c-3.7,1.4-7.6,2-11.5,1.9
	c-1.8,0-3.6-0.2-5.3-0.5c-3.9-0.7-7.5-2.1-10.9-4.2c-0.1,0-0.1-0.1-0.2-0.1c2.9,0.3,5.7,0.1,8.5-0.7c2.8-0.8,5.3-2.1,7.6-3.9
	c-2.4-0.1-4.5-0.8-6.3-2.2c-1.9-1.4-3.1-3.2-3.9-5.4c1.7,0.3,3.3,0.3,4.9-0.2c-2.5-0.6-4.6-1.8-6.3-3.9c-1.6-2-2.4-4.4-2.4-7
	c1.5,0.8,3.2,1.3,4.9,1.4c-2.4-1.7-3.9-3.8-4.6-6.6c-0.6-2.8-0.2-5.4,1.2-7.9c5.9,7,13.4,10.8,22.6,11.4c0-0.1,0-0.1,0-0.2
	c-0.3-1.2-0.3-2.4-0.2-3.6c0.2-1.9,0.9-3.6,2-5.1c1.8-2.4,4.2-3.9,7.2-4.4c0.3,0,0.6-0.1,0.9-0.1h1.3c0.1,0,0.1,0,0.2,0
	c0.3,0,0.6,0.1,0.9,0.1c2.4,0.4,4.4,1.5,6.1,3.2c0.1,0.1,0.2,0.1,0.3,0.1c2.3-0.5,4.5-1.3,6.5-2.5c0.1,0,0.1-0.1,0.2-0.1
	c-0.8,2.6-2.4,4.5-4.6,6c0.1,0,0.2,0,0.2,0c1.4-0.2,2.7-0.5,4.1-1C73.4,31.2,73.9,30.9,74.5,30.7C74.5,30.7,74.6,30.7,74.5,30.7
	C74.6,30.7,74.6,30.7,74.5,30.7C74.5,30.7,74.5,30.7,74.5,30.7L74.5,30.7z"/>
</svg>
