<?xml version="1.0" encoding="utf-8"?>
<!-- Generator: Adobe Illustrator 25.4.1, SVG Export Plug-In . SVG Version: 6.00 Build 0)  -->
<svg version="1.1" id="svg" xmlns="http://www.w3.org/2000/svg" xmlns:xlink="http://www.w3.org/1999/xlink" x="0px" y="0px"
	 viewBox="0 0 2048 2048" style="enable-background:new 0 0 2048 2048;" xml:space="preserve">
 <style>
	 fill: #000;
	 @media (prefers-color-scheme: dark) {
        path {
            fill: #fff;
        }
    }
 </style>
<path d="M720.1,278.7L416,454.2v87.4c0,48-0.4,87.4-0.8,87.4c-0.4,0-34.7-19.6-76.1-43.5L263.9,542l-18.7,10.8l-18.7,10.8v22.2V608
	l74.9,43.3c41.2,23.8,75.1,43.7,75.2,44.2c0.2,0.5-33.7,20.5-75.2,44.4L226,783.4l0,241.5l0,241.5l13.2,7.5
	c7.2,4.1,15.7,8.9,18.8,10.7l5.6,3.2l75.3-43.5c41.4-23.9,75.7-43.5,76.2-43.5c0.5,0,0.9,64,0.9,153c0,84.2-0.3,153-0.8,153
	c-0.4,0-34.7-19.6-76.1-43.5l-75.3-43.5l-18.7,10.8l-18.7,10.8v22.2v22.2L625,1716c384.9,222.2,398.6,230,401.2,228.7
	c1.5-0.7,138.4-79.6,304.2-175.3l301.5-174l0.3-87.8l0.3-87.8l75.4,43.5c41.5,23.9,75.8,43.5,76.2,43.5c0.5,0,9.2-4.8,19.4-10.7
	l18.5-10.7l0-22.1l0-22.1l-75.5-43.5c-41.5-23.9-75.4-43.8-75.2-44.3c0.1-0.4,34-20.3,75.3-44.1l75-43.3l0.3-241.6l0.3-241.6
	l-18.5-10.7c-10.2-5.9-19.1-10.5-19.8-10.2c-0.7,0.3-34.9,19.9-76.1,43.7c-41.1,23.7-74.9,43-75.2,42.8s-0.3-69.3-0.2-153.6
	l0.3-153.2l75.4,43.5c41.5,23.9,75.8,43.5,76.2,43.5c0.5,0,9.2-4.8,19.4-10.7l18.5-10.7l0-22.1l0-22.1l-379.6-219
	c-208.8-120.4-388.3-224-398.9-230.1l-19.3-11.1L720.1,278.7 M1081.9,224c30.8,17.8,55.7,32.7,55.3,33
	c-1.3,1.3-110.6,64.1-112.3,64.5c-1.7,0.4-115.4-64.6-114.6-65.5c2.2-2.2,112.5-65.1,113.8-64.8C1025.1,191.5,1051,206.2,1081.9,224
	 M795.7,409.6c-0.2,0.2-17.3-9.4-38.1-21.4c-36.2-20.9-37.6-21.8-35.5-23.3c1.2-0.8,18.2-10.7,37.8-22l35.6-20.5l0.3,43.4
	C795.9,389.7,795.9,409.4,795.7,409.6 M910.4,344.4c20.1,11.5,36.5,21.5,36.5,22c0,0.8-70.5,42.1-74,43.3
	c-0.6,0.2-0.9-16.2-0.9-43.3c0-27.4,0.4-43.5,1-43.3C873.5,323.3,890.3,332.9,910.4,344.4 M1176,388.7l0,65.8l-53.6,31
	c-29.5,17-55.2,31.8-57,32.8l-3.4,1.8l0.3-66.2l0.3-66.2l56-32.3c30.8-17.8,56.3-32.4,56.8-32.4C1175.7,322.9,1176,352.5,1176,388.7
	 M1290.6,344.6c20.6,11.9,37.1,22,36.7,22.4c-1.2,1-74.2,43-74.8,43c-0.3,0-0.5-19.6-0.5-43.5s0.3-43.5,0.6-43.5
	C1252.9,322.9,1270,332.7,1290.6,344.6 M854.5,531.7c29.2,16.8,62.2,35.9,73.3,42.3c19.8,11.4,20.3,11.8,18,13.2
	c-5.4,3.4-262.8,151.7-263.3,151.7c-0.3,0-0.5-69-0.5-153.4V432.1l59.8,34.5C774.6,485.6,825.3,514.9,854.5,531.7 M985.8,497.8
	l-0.3,21.9l-37-21.3c-20.3-11.7-37-21.8-37-22.4s16.7-10.7,37-22.4l37-21.3l0.3,21.9C985.9,466.1,985.9,485.8,985.8,497.8
	 M1365.7,738.6c-0.3,0.3-263.4-151.2-264.9-152.5c-0.4-0.4,30.6-18.8,69-40.9c38.4-22.1,98.1-56.6,132.7-76.6l63-36.4l0.3,153
	C1365.9,669.4,1365.9,738.4,1365.7,738.6 M1481,454.4c19,10.9,35,20.3,35.7,20.9c0.9,0.8-7.8,6.3-35.6,22.4
	c-20.2,11.7-37.3,21.2-38,21.2c-0.9,0-1.2-10.9-1.2-43.6v-43.6l2.2,1.5C1445.5,433.9,1462,443.5,1481,454.4 M606,476.5v43.6
	l-5.2-3.1c-2.9-1.7-20-11.5-38-21.8c-18-10.3-32.7-19-32.7-19.3c0-0.8,73.3-42.9,74.7-43C605.7,432.9,606,442.3,606,476.5
	 M531.7,564.8c19.4,11.2,35.2,20.6,35.2,21c0,0.4-8.7,5.7-19.2,11.8s-27.5,15.8-37.5,21.6L492,629.8v-44.1v-44.1l2.2,1.4
	C495.5,543.9,512.4,553.7,531.7,564.8 M1555.6,628.7c-0.2,0.2-17.4-9.4-38.1-21.3c-24.6-14.2-37.2-22-36.3-22.5
	c0.7-0.4,17.8-10.2,37.8-21.8l36.5-21.1l0.3,43.1C1555.9,608.8,1555.8,628.4,1555.6,628.7 M606,695.4c0,23.9-0.2,43.5-0.5,43.5
	c-1.6,0-75.4-43.5-74.8-44.1c1.3-1.2,73.7-42.9,74.5-42.9C605.7,651.9,606,671.5,606,695.4 M986,717.7v65.8l-69.2,40
	c-38.1,22-72.3,41.7-76,43.8l-6.8,3.8l-57-32.8c-54.4-31.3-56.9-32.9-54.8-34.3c3.5-2.4,262.2-151.9,263.1-151.9
	C985.7,652,986,681.5,986,717.7 M1199.6,731c70.7,40.8,128.3,74.3,128.2,74.4c-0.2,0.2-25.7,15-56.8,32.9
	c-41.4,23.9-56.9,32.4-58.2,31.8c-0.9-0.4-35.2-20.1-76.2-43.8l-74.6-43l0-65.8l0-65.8l4.6,2.6C1069.1,655.7,1129,690.2,1199.6,731
	 M1480.5,673.6c20.7,11.9,37.2,22,36.8,22.4c-1,1-71.9,41.8-73.8,42.6c-1.3,0.5-1.5-5.2-1.5-43c0-24,0.2-43.6,0.5-43.6
	S1459.8,661.7,1480.5,673.6 M1555.8,826.9l-0.3,21.9l-37.7-21.7c-36.1-20.7-37.6-21.8-35.6-23.2c1.2-0.8,18.2-10.7,37.7-22
	l35.6-20.5l0.3,21.8C1555.9,795.1,1555.9,814.8,1555.8,826.9 M416.2,849.5l0.3,87.6l18.6,10.7l18.6,10.7l19.2-11.1l19.2-11.1v-87.4
	c0-69.5,0.3-87.3,1.2-86.9c0.7,0.3,26.2,14.9,56.8,32.5l55.5,32.1l0.3,175.7c0.2,140.4,0,175.6-1,175.2c-0.7-0.3-69-39.6-151.8-87.4
	l-150.5-86.9l-0.2-88.4l-0.2-88.4l55.7-32.2c30.6-17.7,56.3-32.2,57-32.2C415.7,761.9,416,780.4,416.2,849.5 M1079.7,881
	c30.7,17.7,56.3,32.6,56.9,33.2c0.9,0.8-13.1,9.4-55.7,33.9l-56.8,32.7l-56.6-32.7c-31.1-18-56.5-33.1-56.3-33.5
	c0.2-0.6,110.7-65.1,112.5-65.7C1023.8,849,1049,863.4,1079.7,881 M740.5,904.7l55,31.8v88.3v88.3l-56,32.4
	c-30.8,17.8-56.3,32.4-56.8,32.4s-0.8-69.1-0.8-153.5c0-145.9,0.1-153.5,1.8-152.5C684.7,872.4,710.2,887.2,740.5,904.7
	 M1365.6,1177.6c-0.2,0.2-25.9-14.3-57-32.3l-56.6-32.7l0-88.1l0-88.1l56.7-32.7l56.7-32.7l0.3,153.1
	C1365.9,1108.4,1365.8,1177.4,1365.6,1177.6 M1598.8,961.4l147.2,85v88.2v88.2l-56.5,32.6c-31.1,17.9-56.7,32.6-57,32.6
	c-0.3,0-0.5-39.5-0.5-87.8l0-87.8l-18.8-10.8l-18.8-10.8l-18.9,10.9l-18.9,10.9l-0.5,87.6l-0.5,87.6l-56.7-32.7l-56.7-32.7l0-175.8
	l0-175.8l4.8,2.8C1449.4,875.2,1517.8,914.7,1598.8,961.4 M1745.8,936.7l-0.3,21.8l-37.3-21.5c-20.5-11.8-37.1-21.9-37-22.3
	c0.1-0.4,16.9-10.4,37.3-22.2l37-21.4l0.3,21.9C1745.9,905.1,1745.9,924.7,1745.8,936.7 M916.8,1006.4
	c23.6,13.7,30.9,18.3,29.9,19.1c-0.7,0.6-16.3,9.8-34.7,20.4c-18.4,10.6-35,20.1-36.8,21.2l-3.2,2v-44.2v-44.2l6.8,3.8
	C882.6,986.7,899.6,996.5,916.8,1006.4 M1176,1024.9v43.9l-19.2-11.1c-10.6-6.1-27.5-15.9-37.6-21.7c-10.1-5.8-18.2-11-18-11.6
	c0.3-0.9,72.6-43.2,74.2-43.4C1175.7,981,1176,1000.7,1176,1024.9 M1080.4,1101.2c30.8,17.8,56.1,32.7,56.2,33.2
	c0.4,1.2-110.2,64.9-112.7,64.9c-2.3,0-112.9-63.7-112.9-65c0-1,110.5-65.2,112.4-65.4C1024,1069,1049.7,1083.5,1080.4,1101.2
	 M345.4,1115.7c17,9.8,31.1,18.3,31.2,18.8c0.2,0.7-70,42-73.7,43.3c-0.6,0.2-0.9-16.2-0.9-43.3v-43.7l6.2,3.5
	C311.7,1096.2,328.4,1105.8,345.4,1115.7 M912.7,1223.9l73.2,42.2v65.8v65.8l-20.3-11.7c-262.4-151.3-245.9-141.6-243.5-143.2
	c1.2-0.8,26.7-15.7,56.7-33.1l54.6-31.6l3,1.7C838.1,1180.9,872.5,1200.7,912.7,1223.9 M1271.6,1211.6l56.6,32.6l-2.8,1.8
	c-1.6,1-61.1,35.4-132.3,76.5c-71.2,41.1-129.8,74.9-130.3,75.2c-0.4,0.2-0.6-29.3-0.5-65.7l0.3-66.2l75-43.3
	c41.2-23.8,75.6-43.4,76.3-43.4C1214.5,1178.9,1240.5,1193.6,1271.6,1211.6 M530.6,1222.5c20.6,11.9,37.4,21.8,37.2,21.9
	c-0.6,0.6-75,43.5-75.4,43.5c-0.2,0-0.4-19.6-0.4-43.5s0.3-43.5,0.6-43.5C492.9,1200.9,510,1210.7,530.6,1222.5 M946.7,1464.5
	c-0.6,0.6-28.4,16.8-61.7,35.9c-33.3,19.1-92.3,53.2-131.2,75.7c-38.9,22.5-70.9,40.8-71.2,40.8c-0.3,0-0.6-69-0.6-153.4v-153.4
	l132.9,76.7C913,1443.3,947.5,1463.7,946.7,1464.5 M1365.7,1616.6c-0.2,0.2-23-12.8-50.8-28.8c-27.7-16-76.7-44.3-108.9-62.9
	c-107.1-61.7-106.3-61.3-104.9-62.1c0.7-0.4,60.5-35,132.9-76.7l131.5-75.9l0.3,153C1365.9,1547.4,1365.9,1616.4,1365.7,1616.6
	 M1481,1332.4c19,10.9,35,20.3,35.7,20.9c0.9,0.8-8,6.4-35.6,22.3c-20.2,11.7-37.3,21.2-38,21.2c-0.9,0-1.2-11-1.2-43.6v-43.6
	l2.2,1.4C1445.5,1311.9,1462,1321.5,1481,1332.4 M606,1354.5v43.6l-5.2-3.1c-2.9-1.7-20-11.5-38-21.8c-18-10.3-32.7-19-32.7-19.3
	c0-0.8,73.3-42.9,74.7-42.9C605.7,1310.9,606,1320.3,606,1354.5 M532.7,1443.4c18.8,10.8,34.2,20,34.2,20.4c0,0.4-8.7,5.7-19.2,11.8
	c-10.6,6.1-27.5,15.8-37.5,21.6l-18.2,10.5v-44v-44l3.2,2C497,1422.8,513.9,1432.6,532.7,1443.4 M1555.6,1506.6
	c-0.2,0.2-17.4-9.4-38.1-21.3c-24.7-14.2-37.2-22-36.3-22.5c0.7-0.4,17.8-10.2,37.8-21.8l36.5-21.1l0.3,43.1
	C1555.9,1486.8,1555.8,1506.4,1555.6,1506.6 M606,1573.4c0,23.9-0.2,43.5-0.5,43.5c-1.7,0-75.4-43.5-74.8-44.1
	c1.2-1.2,73.7-42.9,74.5-42.9C605.7,1529.9,606,1549.5,606,1573.4 M986,1595.7v65.8l-56.2,32.4c-30.9,17.8-56.6,32.6-57,32.8
	c-0.4,0.2-0.6-29.4-0.5-65.7l0.3-66.1l56-32.4c30.8-17.8,56.3-32.4,56.8-32.4C985.7,1529.9,986,1559.5,986,1595.7 M1099.6,1551.2
	c20.2,11.7,36.9,21.7,37.1,22.2c0.2,0.8-69.9,42.1-73.7,43.3c-0.6,0.2-1-15.3-1-43.2c0-24,0.2-43.6,0.4-43.6
	C1062.6,1529.9,1079.4,1539.5,1099.6,1551.2 M1480.5,1551.6c20.6,11.9,37.2,22,36.7,22.4c-1,1-71.8,41.8-73.8,42.6
	c-1.4,0.5-1.5-4.4-1.5-43c0-24,0.2-43.6,0.5-43.6C1442.8,1529.9,1459.9,1539.7,1480.5,1551.6 M795.8,1704.9l-0.3,22l-37.7-21.7
	c-20.7-11.9-37.3-22.1-36.9-22.5c0.4-0.5,17.4-10.4,37.7-22.1l36.9-21.3l0.3,21.9C795.9,1673.1,795.9,1692.8,795.8,1704.9
	 M1175.8,1704.9l-0.3,21.9l-37.8-21.8c-25.7-14.8-37.4-22.1-36.5-22.7c0.7-0.5,17.7-10.3,37.8-22l36.5-21.1l0.3,21.9
	C1175.9,1673.1,1175.9,1692.8,1175.8,1704.9 M1327.2,1682.8c0.6,0.5-70,42.2-74.4,44c-0.5,0.2-0.8-19.5-0.8-43.7v-44l37.2,21.5
	C1309.7,1672.4,1326.8,1682.4,1327.2,1682.8 M1079.8,1759.1c30.7,17.7,56.3,32.6,57,33.1c0.9,0.7-14.9,10.3-55.7,33.8l-56.9,32.9
	l-56.3-32.5c-31-17.9-56.7-32.8-57-33.2c-0.5-0.5,111.4-66.1,113-66.2C1023.9,1726.9,1049.1,1741.4,1079.8,1759.1"/>
</svg>
